# xmcd
#
# Track frame offsets:
#	150
#	14989
#	36864
#	51561
#	69352
#	97827
#	116582
#	130052
#	146478
#	164324
#	174197
#	187928
#	203631
#	217252
#	239288
#	263192
#
# Disc length: 3726 seconds
#
# Revision: 1
# Processed by: cddbd v1.5.2PL0 Copyright (c) Steve Scherf et al.
# Submitted via: audiograbber 1.83.01
#
DISCID=e60e8c10
DTITLE=Various Artist - Cool - Jazz Divas
DYEAR=2004
DGENRE=Jazz
TTITLE0=Billie Holiday - You've Changed
TTITLE1=Ella Fitzgerald - Good Morning Heartache
TTITLE2=Sarah Vaughan - Summertime
TTITLE3=Aretha Franklin - Skylark
TTITLE4=Billie Holiday with Mal Waldron and The All Stars - Fine And Mellow
TTITLE5=Ella Fitzgerald - Miss Otis Regrets (She's Unable To Lunch Today)
TTITLE6=Sarah Vaughan - Just Friends
TTITLE7=Aretha Franklin - Unforgettable
TTITLE8=Nina Simone - Everything Must Change
TTITLE9=Ella Fitzgerald - Don't Worry About Me
TTITLE10=Sarah Vaughan - Thinking Of You
TTITLE11=Aretha Franklin - What A Difference A Day Made
TTITLE12=Billie Holiday - My Man
TTITLE13=Nina Simone - My Father
TTITLE14=Mahalia Jackson - There Is A Balm In Gilead
TTITLE15=Mahalia Jackson - Calvary
EXTD=Selection Musicale: Henry Renaud
EXTT0=
EXTT1=
EXTT2=
EXTT3=
EXTT4=
EXTT5=
EXTT6=
EXTT7=
EXTT8=
EXTT9=
EXTT10=
EXTT11=
EXTT12=
EXTT13=
EXTT14=
EXTT15=
PLAYORDER=
